<?xml version="1.0" encoding="UTF-8" ?>
<!DOCTYPE svg PUBLIC "-//W3C//DTD SVG 1.1//EN" "http://www.w3.org/Graphics/SVG/1.1/DTD/svg11.dtd">
<svg width="1926pt" height="301pt" viewBox="0 0 1926 301" version="1.1" xmlns="http://www.w3.org/2000/svg">
<g id="#494849fd">
<path fill="#e0e0e0" opacity="1.00" d=" M 307.91 0.00 L 334.91 0.00 C 364.65 2.29 393.59 13.50 417.11 31.84 C 441.94 50.81 460.34 77.98 468.59 108.14 C 476.43 135.41 474.71 164.89 465.87 191.70 C 456.90 219.53 439.03 244.01 416.48 262.44 C 406.51 270.49 395.94 278.05 384.09 283.09 C 361.26 293.74 336.24 299.73 311.03 300.07 C 302.01 300.13 293.00 299.97 283.99 299.94 C 250.86 297.94 218.69 288.30 188.01 276.06 C 176.75 271.44 165.41 266.95 154.68 261.18 C 99.41 232.43 49.10 194.84 3.37 152.70 C 2.11 151.31 0.22 150.03 0.13 147.99 C 0.93 146.00 2.96 144.87 4.42 143.39 C 34.43 116.42 66.21 91.44 99.25 68.29 C 127.55 47.91 157.29 29.20 189.44 15.46 C 195.50 12.74 201.64 9.72 208.40 9.31 C 197.68 22.25 184.42 32.81 173.89 45.92 C 165.91 54.26 157.79 62.49 149.17 70.18 C 134.67 83.64 121.16 98.17 105.98 110.91 C 101.89 114.51 98.13 118.47 94.00 122.04 C 84.03 131.11 73.18 139.24 63.86 149.00 C 65.73 152.42 69.07 154.56 72.04 156.92 C 99.43 178.12 126.91 199.31 156.25 217.78 C 187.72 237.40 222.75 251.81 259.48 257.72 C 268.58 259.09 277.76 260.36 287.00 260.12 C 300.85 260.22 314.87 260.75 328.49 257.71 C 368.69 251.54 405.87 224.44 421.59 186.57 C 425.58 177.12 427.69 167.01 429.14 156.89 C 430.43 145.03 428.76 133.06 426.32 121.46 C 417.56 86.06 389.29 57.14 355.43 44.61 C 341.52 39.73 326.53 39.49 311.97 40.20 C 286.89 42.21 262.42 53.75 245.74 72.72 C 240.07 79.50 234.48 86.47 230.52 94.42 C 223.17 108.87 219.42 124.94 217.86 141.00 C 216.85 168.19 226.41 195.40 243.24 216.67 C 248.90 223.93 255.81 230.14 261.12 237.70 C 240.95 232.72 220.99 225.78 203.37 214.57 C 196.43 210.09 189.51 205.02 185.16 197.84 C 181.23 191.61 179.60 184.34 177.90 177.27 C 174.65 161.74 172.65 145.65 174.89 129.84 C 176.34 122.25 177.13 114.54 179.11 107.06 C 183.57 89.50 191.87 73.04 202.65 58.52 C 226.99 24.91 266.65 3.33 307.91 0.00 Z" />
<path fill="#e0e0e0" opacity="1.00" d=" M 436.95 9.19 C 454.37 13.15 470.46 21.27 486.02 29.81 C 514.13 44.84 540.27 63.24 566.01 81.96 C 594.10 102.70 621.17 124.80 647.50 147.73 C 624.29 171.07 598.10 191.12 572.01 211.08 C 545.20 231.08 516.72 248.85 487.02 264.22 C 471.40 271.06 456.12 279.30 439.22 282.51 C 481.46 237.98 525.13 194.57 573.01 156.06 C 575.85 153.80 578.37 151.16 580.43 148.16 C 579.45 146.96 578.50 145.73 577.33 144.73 C 530.34 105.63 486.81 62.60 444.25 18.77 C 441.44 15.89 439.05 12.62 436.95 9.19 Z" />
<path fill="#e0e0e0" opacity="1.00" d=" M 1265.97 37.37 C 1278.50 37.58 1291.03 37.39 1303.56 37.44 C 1304.21 99.14 1303.01 160.84 1304.17 222.53 C 1335.86 223.69 1367.57 222.73 1399.26 222.99 C 1399.58 233.03 1399.65 243.09 1399.37 253.13 C 1354.80 253.08 1310.23 253.18 1265.66 253.07 C 1265.86 195.39 1265.73 137.70 1265.76 80.02 C 1265.85 65.81 1265.61 51.58 1265.97 37.37 Z" />
<path fill="#e0e0e0" opacity="1.00" d=" M 1774.76 38.65 C 1786.93 37.75 1799.22 37.26 1811.36 38.83 C 1811.76 110.19 1811.42 181.55 1811.61 252.91 C 1799.38 253.44 1787.12 253.13 1774.88 253.04 C 1773.59 241.07 1774.19 229.02 1774.30 217.01 C 1774.04 163.00 1774.42 108.99 1774.13 54.98 C 1774.16 49.53 1774.37 44.08 1774.76 38.65 Z" />
<path fill="#e0e0e0" opacity="1.00" d=" M 1483.32 107.54 C 1500.48 106.64 1518.62 107.60 1533.98 116.10 C 1557.04 128.18 1572.13 153.95 1571.62 179.94 C 1571.80 189.97 1570.90 200.16 1567.53 209.66 C 1558.13 234.86 1533.92 253.87 1507.09 256.54 C 1489.88 257.91 1471.91 258.01 1455.66 251.43 C 1432.67 242.40 1414.36 221.12 1410.74 196.46 C 1409.65 185.94 1409.55 175.20 1411.68 164.80 C 1415.33 147.62 1425.77 132.11 1439.99 121.88 C 1452.46 112.68 1467.83 107.67 1483.32 107.54 M 1479.62 134.74 C 1473.51 136.14 1467.65 138.78 1462.76 142.71 C 1456.82 147.47 1453.06 154.37 1450.29 161.33 C 1443.13 179.96 1445.67 202.81 1459.07 218.04 C 1472.90 232.58 1496.91 235.14 1514.06 225.15 C 1526.50 217.97 1533.38 203.83 1535.12 189.97 C 1537.37 172.19 1531.04 152.65 1516.48 141.61 C 1505.85 134.32 1492.14 132.09 1479.62 134.74 Z" />
<path fill="#e0e0e0" opacity="1.00" d=" M 1664.30 107.42 C 1680.73 106.55 1697.83 108.37 1712.40 116.57 C 1726.80 124.41 1738.51 137.29 1744.45 152.64 C 1753.56 173.75 1751.77 198.87 1740.89 218.98 C 1734.59 230.75 1724.86 240.69 1713.03 246.92 C 1695.13 257.86 1673.23 258.46 1652.93 256.64 C 1634.32 254.21 1615.95 245.78 1603.76 231.22 C 1595.08 220.29 1589.21 206.90 1587.89 192.95 C 1587.44 182.26 1587.21 171.37 1590.08 160.96 C 1596.17 136.41 1617.20 117.43 1640.93 110.14 C 1648.43 107.47 1656.47 107.94 1664.30 107.42 M 1657.51 134.68 C 1643.34 137.38 1631.76 148.83 1627.58 162.46 C 1623.47 173.29 1622.98 185.33 1625.68 196.56 C 1627.68 204.75 1630.91 213.00 1637.09 218.97 C 1649.15 230.84 1668.10 234.29 1683.98 229.07 C 1692.09 226.43 1699.40 221.16 1704.08 213.97 C 1716.49 195.36 1716.10 169.14 1703.12 150.92 C 1700.02 146.73 1696.45 142.67 1691.83 140.14 C 1681.55 134.26 1669.11 132.30 1657.51 134.68 Z" />
<path fill="#e0e0e0" opacity="1.00" d=" M 1873.15 111.09 C 1887.34 109.72 1901.68 109.90 1915.88 111.00 C 1913.79 116.43 1908.85 119.85 1905.04 123.98 C 1891.39 137.75 1878.85 152.55 1865.71 166.80 C 1862.48 170.20 1858.99 173.40 1856.34 177.31 C 1879.14 202.69 1901.77 228.22 1925.00 253.21 C 1911.68 253.13 1898.36 253.09 1885.05 253.11 C 1882.33 253.01 1879.03 253.29 1877.22 250.84 C 1858.16 229.24 1838.66 208.04 1819.58 186.46 C 1817.78 184.22 1815.66 182.16 1814.43 179.55 C 1813.77 178.09 1814.72 176.68 1815.70 175.65 C 1834.71 154.01 1854.02 132.63 1873.15 111.09 Z" />
</g>
<g id="#c57147fd">
<path fill="#c57147" opacity="1.00" d=" M 757.99 37.43 C 775.00 37.72 792.02 37.16 809.04 37.72 C 826.86 67.66 846.49 96.47 864.79 126.12 C 868.19 131.40 871.14 136.98 875.05 141.92 C 875.70 141.86 877.01 141.74 877.67 141.68 C 896.99 108.94 918.19 77.36 938.16 45.03 C 939.74 42.40 941.46 39.85 943.59 37.63 C 960.07 37.22 976.55 37.67 993.03 37.44 C 993.81 60.62 993.73 83.81 993.78 107.00 C 993.70 128.34 993.90 149.68 993.74 171.01 C 993.65 198.38 994.37 225.76 993.35 253.12 C 977.31 253.16 961.26 253.06 945.22 253.13 C 944.75 220.73 945.26 188.33 944.95 155.93 C 944.76 142.82 945.69 129.68 944.50 116.60 C 943.21 117.98 941.93 119.38 940.91 120.96 C 925.95 144.63 911.12 168.39 896.00 191.96 C 893.48 195.81 891.23 199.87 888.06 203.24 C 879.74 203.62 871.40 203.84 863.09 203.22 C 860.27 203.29 858.81 200.59 857.38 198.63 C 840.05 172.21 823.84 145.06 806.22 118.82 C 805.26 163.56 806.32 208.31 805.74 253.05 C 789.75 253.12 773.77 253.03 757.79 253.11 C 757.71 181.22 757.28 109.33 757.99 37.43 Z" />
<path fill="#c57147" opacity="1.00" d=" M 1030.33 38.42 C 1045.88 37.39 1061.47 38.30 1077.05 37.98 C 1106.51 37.87 1136.85 36.80 1165.10 46.58 C 1182.86 52.75 1199.36 63.00 1211.86 77.16 C 1223.17 89.75 1231.20 105.31 1234.46 121.95 C 1240.00 148.29 1236.21 176.89 1222.16 200.05 C 1205.56 227.75 1175.46 245.69 1143.97 250.90 C 1131.10 253.25 1117.97 252.30 1104.97 252.47 C 1080.06 252.50 1055.15 252.82 1030.25 252.15 C 1029.43 203.44 1030.08 154.73 1029.94 106.03 C 1030.05 83.49 1029.39 60.95 1030.33 38.42 M 1077.55 73.81 C 1076.62 86.18 1077.49 98.61 1077.27 111.00 C 1077.33 146.21 1076.88 181.42 1077.58 216.63 C 1093.73 217.33 1110.04 217.98 1126.06 215.36 C 1138.20 213.33 1150.29 209.48 1160.44 202.35 C 1169.75 195.92 1177.34 186.92 1181.72 176.45 C 1193.07 150.48 1188.99 117.67 1169.36 96.73 C 1160.72 86.79 1148.61 80.60 1135.98 77.38 C 1116.94 72.35 1097.05 73.05 1077.55 73.81 Z" />
<path fill="#c57147" opacity="1.00" d=" M 273.85 115.84 C 285.04 96.74 307.80 84.91 329.88 87.34 C 336.33 88.08 343.42 87.29 349.03 91.22 C 345.65 95.75 341.30 99.77 339.48 105.28 C 337.53 112.14 338.67 120.05 343.38 125.57 C 348.94 132.83 359.58 136.69 368.02 132.18 C 374.44 128.39 378.04 121.49 383.75 116.86 C 385.56 130.16 388.10 143.57 386.61 157.04 C 385.49 170.38 378.16 182.51 368.64 191.62 C 344.65 213.20 303.61 210.95 281.88 187.19 C 264.28 168.44 260.94 138.04 273.85 115.84 Z" />
</g>
</svg>
